<?xml version="1.0" standalone="no"?><!DOCTYPE svg PUBLIC "-//W3C//DTD SVG 1.1//EN" "http://www.w3.org/Graphics/SVG/1.1/DTD/svg11.dtd"><svg t="1702709302046" class="icon" viewBox="0 0 1024 1024" version="1.1" xmlns="http://www.w3.org/2000/svg" p-id="5331" xmlns:xlink="http://www.w3.org/1999/xlink" width="200" height="200"><path d="M989.9008 186.7776c0-84.8896-68.9152-153.8048-153.8048-153.6l-648.6016 0.4096c-84.992 0-153.8048 68.9152-153.7024 153.8048l0.4096 649.8304c0 84.8896 68.9152 153.8048 153.8048 153.6l648.6016-0.4096c84.8896 0 153.8048-68.9152 153.6-153.8048l-0.3072-649.8304zM836.608 923.136l-648.6016 0.512c-47.7184 0-86.528-38.8096-86.528-86.528l-0.4096-649.8304c0-47.7184 38.8096-86.528 86.528-86.528l648.6016-0.4096c47.7184 0 86.528 38.8096 86.528 86.528l0.4096 649.8304c-0.1024 47.7184-38.912 86.4256-86.528 86.4256z" p-id="5332"></path><path d="M768.1024 275.0464v-0.3072c0-18.6368-15.0528-33.6896-33.6896-33.6896l-445.44 0.3072c-18.6368 0-33.6896 15.0528-33.6896 33.6896V355.1232c0 18.6368 15.0528 33.6896 33.6896 33.6896s33.6896-15.0528 33.6896-33.6896v-46.3872l155.4432-0.1024 0.3072 406.9376h-51.712c-18.6368 0-33.6896 15.0528-33.6896 33.6896s15.0528 33.6896 33.6896 33.6896l170.8032-0.1024c18.6368 0 33.6896-15.0528 33.6896-33.6896s-15.0528-33.6896-33.6896-33.6896H545.792l-0.3072-406.9376 155.4432-0.1024v46.3872c0 18.6368 15.0528 33.6896 33.6896 33.6896s33.6896-15.0528 33.6896-33.6896v-79.4624c-0.2048-0.2048-0.2048-0.2048-0.2048-0.3072z" p-id="5333"></path></svg>